<svg width="38" height="38" viewBox="0 0 38 38" fill="none" xmlns="http://www.w3.org/2000/svg">
<rect width="38" height="38" fill="#1E1E1E"/>
<g id="HOME" clip-path="url(#clip0_1_6)">
<rect width="1440" height="4122" transform="translate(-724 -2414)" fill="#1A1919"/>
<g id="Features Container">
<rect width="1440" height="1527" transform="translate(-724 -1032)" fill="#0D0D0D"/>
<g id="Features">
<g id="Frame 34138">
<g id="Group 16">
<g id="Group 10">
<g id="Group">
<path id="Vector" d="M36 10.5V34.3C36 34.7509 35.7761 35.1833 35.3776 35.5021C34.9791 35.8209 34.4386 36 33.875 36H4.125C3.56141 36 3.02091 35.8209 2.6224 35.5021C2.22388 35.1833 2 34.7509 2 34.3V3.7C2 3.24913 2.22388 2.81673 2.6224 2.49792C3.02091 2.17911 3.56141 2 4.125 2H25.375M36 10.5H25.375V2M36 10.5L25.375 2" stroke="white" stroke-width="4" stroke-linecap="round" stroke-linejoin="round"/>
<path id="Vector_2" d="M19 22.4C21.3472 22.4 23.25 20.8778 23.25 19C23.25 17.1222 21.3472 15.6 19 15.6C16.6528 15.6 14.75 17.1222 14.75 19C14.75 20.8778 16.6528 22.4 19 22.4Z" stroke="white" stroke-width="4" stroke-linecap="round" stroke-linejoin="round"/>
<path id="Vector_3" d="M27.5 29.2C27.5 27.3965 26.6045 25.6669 25.0104 24.3917C23.4163 23.1164 21.2543 22.4 19 22.4C16.7457 22.4 14.5837 23.1164 12.9896 24.3917C11.3955 25.6669 10.5 27.3965 10.5 29.2" stroke="white" stroke-width="4" stroke-linecap="round" stroke-linejoin="round"/>
</g>
</g>
</g>
</g>
</g>
</g>
</g>
<defs>
<clipPath id="clip0_1_6">
<rect width="1440" height="4122" fill="white" transform="translate(-724 -2414)"/>
</clipPath>
</defs>
</svg>
