<svg width="36" height="36" viewBox="0 0 36 36" fill="none" xmlns="http://www.w3.org/2000/svg">
<rect width="36" height="36" fill="#1E1E1E"/>
<g id="HOME" clip-path="url(#clip0_1_6)">
<rect width="1440" height="4122" transform="translate(-726 -2045)" fill="#1A1919"/>
<g id="Features Container">
<rect width="1440" height="1527" transform="translate(-726 -663)" fill="#0D0D0D"/>
<g id="Features">
<g id="Frame 34138">
<g id="Group 13">
<g id="Group 7">
<path id="Vector" d="M32.4 0H3.6C1.62 0 0 1.35 0 3V33C0 34.65 1.62 36 3.6 36H32.4C34.38 36 36 34.65 36 33V3C36 1.35 34.38 0 32.4 0ZM10.8 30C10.8 30.825 9.99 31.5 9 31.5H5.4C4.41 31.5 3.6 30.825 3.6 30V29.25C3.6 28.425 4.41 27.75 5.4 27.75H9C9.99 27.75 10.8 28.425 10.8 29.25V30ZM10.8 24C10.8 24.825 9.99 25.5 9 25.5H5.4C4.41 25.5 3.6 24.825 3.6 24V23.25C3.6 22.425 4.41 21.75 5.4 21.75H9C9.99 21.75 10.8 22.425 10.8 23.25V24ZM10.8 18C10.8 18.825 9.99 19.5 9 19.5H5.4C4.41 19.5 3.6 18.825 3.6 18V17.25C3.6 16.425 4.41 15.75 5.4 15.75H9C9.99 15.75 10.8 16.425 10.8 17.25V18ZM21.6 30C21.6 30.825 20.79 31.5 19.8 31.5H16.2C15.21 31.5 14.4 30.825 14.4 30V29.25C14.4 28.425 15.21 27.75 16.2 27.75H19.8C20.79 27.75 21.6 28.425 21.6 29.25V30ZM21.6 24C21.6 24.825 20.79 25.5 19.8 25.5H16.2C15.21 25.5 14.4 24.825 14.4 24V23.25C14.4 22.425 15.21 21.75 16.2 21.75H19.8C20.79 21.75 21.6 22.425 21.6 23.25V24ZM21.6 18C21.6 18.825 20.79 19.5 19.8 19.5H16.2C15.21 19.5 14.4 18.825 14.4 18V17.25C14.4 16.425 15.21 15.75 16.2 15.75H19.8C20.79 15.75 21.6 16.425 21.6 17.25V18ZM32.4 30C32.4 30.825 31.59 31.5 30.6 31.5H27C26.01 31.5 25.2 30.825 25.2 30V29.25C25.2 28.425 26.01 27.75 27 27.75H30.6C31.59 27.75 32.4 28.425 32.4 29.25V30ZM32.4 24C32.4 24.825 31.59 25.5 30.6 25.5H27C26.01 25.5 25.2 24.825 25.2 24V23.25C25.2 22.425 26.01 21.75 27 21.75H30.6C31.59 21.75 32.4 22.425 32.4 23.25V24ZM32.4 18C32.4 18.825 31.59 19.5 30.6 19.5H27C26.01 19.5 25.2 18.825 25.2 18V17.25C25.2 16.425 26.01 15.75 27 15.75H30.6C31.59 15.75 32.4 16.425 32.4 17.25V18ZM32.4 11.25C32.4 12.075 31.59 12.75 30.6 12.75H5.4C4.41 12.75 3.6 12.075 3.6 11.25V5.25C3.6 4.425 4.41 3.75 5.4 3.75H30.6C31.59 3.75 32.4 4.425 32.4 5.25V11.25Z" fill="white"/>
</g>
</g>
</g>
</g>
</g>
</g>
<defs>
<clipPath id="clip0_1_6">
<rect width="1440" height="4122" fill="white" transform="translate(-726 -2045)"/>
</clipPath>
</defs>
</svg>
