<svg width="123" height="100" viewBox="0 0 123 100" fill="none" xmlns="http://www.w3.org/2000/svg">
<rect width="123" height="100" rx="10" fill="white"/>
<g clip-path="url(#clip0_44_77)">
<path d="M76.5204 54.5931C75.6911 54.6124 74.8666 54.4624 74.0972 54.1523C73.3279 53.8422 72.6298 53.3785 72.0456 52.7896C71.4615 52.2007 71.0035 51.4988 70.6997 50.7269C70.3959 49.9551 70.2526 49.1294 70.2786 48.3003C70.2572 47.4765 70.4034 46.657 70.7083 45.8915C71.0133 45.126 71.4706 44.4304 72.0526 43.8471C72.6325 43.2539 73.3287 42.7869 74.0975 42.4753C74.8663 42.1638 75.6912 42.0144 76.5204 42.0366C77.3508 42.0161 78.1753 42.1819 78.9332 42.5217C79.6912 42.8615 80.3634 43.3668 80.9006 44.0004L79.8275 45.0735C79.4339 44.5759 78.9306 44.176 78.3569 43.905C77.7833 43.634 77.1548 43.4993 76.5204 43.5112C75.9022 43.4961 75.2873 43.6075 74.7136 43.8385C74.1399 44.0695 73.6195 44.4152 73.1842 44.8545C72.7395 45.3079 72.3922 45.8475 72.1637 46.4401C71.9352 47.0326 71.8304 47.6657 71.8555 48.3003C71.8283 48.9373 71.9322 49.5731 72.1608 50.1683C72.3893 50.7635 72.7376 51.3055 73.1842 51.7606C73.6184 52.2013 74.1387 52.548 74.7127 52.7791C75.2866 53.0101 75.9019 53.1207 76.5204 53.1039C77.2221 53.1005 77.9142 52.94 78.5458 52.6343C79.1774 52.3286 79.7326 51.8854 80.1706 51.3372L81.2948 52.4322C80.7258 53.1125 80.0093 53.6543 79.1996 54.0164C78.3594 54.402 77.4449 54.5989 76.5204 54.5931ZM84.0909 42.3067V54.3303H82.5432V42.3067H84.0909ZM85.4195 50.2129C85.4027 49.6367 85.4998 49.0627 85.7052 48.524C85.9107 47.9853 86.2204 47.4925 86.6168 47.0738C87.009 46.6673 87.4816 46.3471 88.0045 46.1334C88.5274 45.9197 89.0891 45.8173 89.6537 45.8327C90.2163 45.8167 90.7759 45.9188 91.2965 46.1326C91.8172 46.3464 92.2871 46.667 92.676 47.0738C93.0764 47.49 93.3892 47.9823 93.5961 48.5214C93.803 49.0606 93.8997 49.6358 93.8806 50.2129C93.9018 50.7904 93.8061 51.3661 93.599 51.9056C93.392 52.445 93.0781 52.9371 92.676 53.3521C92.2882 53.7603 91.8185 54.082 91.2976 54.2959C90.7767 54.5097 90.2165 54.6111 89.6537 54.5931C89.0888 54.6104 88.5266 54.5088 88.0035 54.295C87.4803 54.0812 87.0079 53.76 86.6168 53.3521C86.2204 52.9334 85.9107 52.4405 85.7052 51.9019C85.4998 51.3632 85.4027 50.7892 85.4195 50.2129ZM86.9672 50.2129C86.9316 51.0025 87.2098 51.774 87.741 52.3592C87.9867 52.62 88.2831 52.8277 88.612 52.9697C88.941 53.1117 89.2954 53.185 89.6537 53.185C90.012 53.185 90.3664 53.1117 90.6954 52.9697C91.0243 52.8277 91.3207 52.62 91.5664 52.3592C92.0976 51.774 92.3758 51.0025 92.3402 50.2129C92.3743 49.428 92.096 48.6616 91.5664 48.0812C91.323 47.8166 91.0273 47.6054 90.6981 47.461C90.3689 47.3165 90.0132 47.2419 89.6537 47.2419C89.2942 47.2419 88.9386 47.3165 88.6093 47.461C88.2801 47.6054 87.9844 47.8166 87.741 48.0812C87.2114 48.6616 86.9331 49.428 86.9672 50.2129ZM102.422 54.3303H100.962V53.1842H100.889C100.628 53.6127 100.254 53.9612 99.8085 54.1916C99.3454 54.4541 98.8223 54.5924 98.29 54.5931C97.8631 54.6208 97.4352 54.5584 97.034 54.41C96.6328 54.2616 96.2673 54.0305 95.9612 53.7317C95.3828 53.0475 95.0923 52.1655 95.1508 51.2715V46.1102H96.6912V51.1766C96.659 51.4509 96.6898 51.7289 96.7811 51.9895C96.8724 52.2502 97.0219 52.4866 97.2182 52.6808C97.4145 52.875 97.6525 53.0219 97.9142 53.1104C98.1758 53.1989 98.4541 53.2266 98.728 53.1915C99.0236 53.1966 99.3165 53.1334 99.5837 53.0068C99.8508 52.8801 100.085 52.6935 100.268 52.4614C100.685 51.96 100.905 51.3245 100.889 50.6729V46.1102H102.437L102.422 54.3303ZM107.649 54.5931C107.124 54.593 106.604 54.4795 106.127 54.2602C105.649 54.041 105.225 53.7213 104.882 53.3229C104.115 52.4702 103.698 51.3597 103.714 50.2129C103.689 49.0721 104.096 47.964 104.853 47.1103C105.193 46.7083 105.617 46.3856 106.095 46.1649C106.573 45.9442 107.093 45.8308 107.62 45.8327C108.196 45.823 108.765 45.9559 109.277 46.2197C109.746 46.4509 110.144 46.8039 110.43 47.2417H110.496L110.46 46.1102V42.3067H112V54.3303H110.54V53.1842H110.474C110.188 53.622 109.79 53.975 109.321 54.2062C108.804 54.4723 108.23 54.6053 107.649 54.5931ZM107.905 53.1842C108.257 53.1956 108.607 53.1273 108.93 52.9845C109.252 52.8416 109.538 52.6279 109.766 52.3592C110.277 51.7645 110.538 50.9957 110.496 50.2129C110.531 49.4356 110.271 48.6738 109.766 48.0812C109.539 47.8107 109.253 47.5948 108.931 47.4495C108.609 47.3042 108.258 47.2332 107.905 47.2417C107.552 47.2363 107.202 47.3087 106.88 47.4538C106.558 47.5989 106.272 47.8131 106.043 48.0812C105.539 48.6738 105.278 49.4356 105.313 50.2129C105.272 50.991 105.534 51.7547 106.043 52.3446C106.272 52.6128 106.558 52.827 106.88 52.9721C107.202 53.1172 107.552 53.1896 107.905 53.1842Z" fill="#5F6368"/>
<path d="M17.928 54.5931C16.1114 54.5991 14.3656 53.8891 13.0689 52.6169C11.7721 51.3448 11.0288 49.6129 11 47.7965C11.0288 45.9802 11.7721 44.2483 13.0689 42.9761C14.3656 41.7039 16.1114 40.9939 17.928 40.9999C18.7936 40.9855 19.6534 41.144 20.4569 41.4662C21.2605 41.7884 21.9916 42.2677 22.6075 42.8761L21.2862 44.1829C20.3852 43.3154 19.1786 42.838 17.928 42.8542C17.2805 42.8522 16.639 42.979 16.0409 43.2273C15.4429 43.4755 14.9001 43.8401 14.4443 44.3001C13.9884 44.76 13.6286 45.3059 13.3857 45.9062C13.1428 46.5065 13.0217 47.149 13.0295 47.7965C13.0217 48.444 13.1428 49.0866 13.3857 49.6869C13.6286 50.2871 13.9884 50.8331 14.4443 51.293C14.9001 51.7529 15.4429 52.1176 16.0409 52.3658C16.639 52.614 17.2805 52.7408 17.928 52.7388C18.5659 52.765 19.2022 52.6571 19.7957 52.4219C20.3893 52.1867 20.9269 51.8296 21.3738 51.3737C21.9694 50.7312 22.3275 49.9043 22.3885 49.0303H17.928V47.1833H24.2063C24.2748 47.5663 24.3065 47.955 24.3012 48.3441C24.3506 49.9461 23.7686 51.5035 22.6805 52.6804C22.0682 53.3166 21.3281 53.8159 20.509 54.1455C19.6899 54.4752 18.8103 54.6277 17.928 54.5931Z" fill="#4285F4"/>
<path d="M34.0106 50.213C34.0346 50.797 33.9403 51.3797 33.7334 51.9263C33.5264 52.4729 33.2111 52.972 32.8064 53.3936C32.4017 53.8153 31.916 54.1508 31.3784 54.38C30.8407 54.6091 30.2623 54.7273 29.6779 54.7273C29.0934 54.7273 28.515 54.6091 27.9774 54.38C27.4398 54.1508 26.954 53.8153 26.5493 53.3936C26.1446 52.972 25.8294 52.4729 25.6224 51.9263C25.4155 51.3797 25.3212 50.797 25.3451 50.213C25.3212 49.6291 25.4155 49.0463 25.6224 48.4997C25.8294 47.9531 26.1446 47.454 26.5493 47.0324C26.954 46.6107 27.4398 46.2752 27.9774 46.0461C28.515 45.8169 29.0934 45.6987 29.6779 45.6987C30.2623 45.6987 30.8407 45.8169 31.3784 46.0461C31.916 46.2752 32.4017 46.6107 32.8064 47.0324C33.2111 47.454 33.5264 47.9531 33.7334 48.4997C33.9403 49.0463 34.0346 49.6291 34.0106 50.213ZM32.1125 50.213C32.1447 49.8739 32.1057 49.5318 31.998 49.2086C31.8903 48.8854 31.7163 48.5883 31.4871 48.3363C31.2579 48.0843 30.9785 47.8829 30.667 47.7452C30.3554 47.6074 30.0185 47.5362 29.6779 47.5362C29.3372 47.5362 29.0003 47.6074 28.6888 47.7452C28.3772 47.8829 28.0979 48.0843 27.8687 48.3363C27.6395 48.5883 27.4654 48.8854 27.3577 49.2086C27.25 49.5318 27.211 49.8739 27.2432 50.213C27.211 50.5521 27.25 50.8943 27.3577 51.2174C27.4654 51.5406 27.6395 51.8377 27.8687 52.0897C28.0979 52.3417 28.3772 52.5431 28.6888 52.6809C29.0003 52.8186 29.3372 52.8898 29.6779 52.8898C30.0185 52.8898 30.3554 52.8186 30.667 52.6809C30.9785 52.5431 31.2579 52.3417 31.4871 52.0897C31.7163 51.8377 31.8903 51.5406 31.998 51.2174C32.1057 50.8943 32.1447 50.5521 32.1125 50.213Z" fill="#EA4335"/>
<path d="M43.7273 50.213C43.7513 50.797 43.657 51.3797 43.4501 51.9263C43.2431 52.4729 42.9278 52.972 42.5231 53.3936C42.1184 53.8153 41.6327 54.1508 41.0951 54.38C40.5574 54.6091 39.979 54.7273 39.3946 54.7273C38.8102 54.7273 38.2317 54.6091 37.6941 54.38C37.1565 54.1508 36.6707 53.8153 36.266 53.3936C35.8613 52.972 35.5461 52.4729 35.3391 51.9263C35.1322 51.3797 35.0379 50.797 35.0618 50.213C35.0379 49.6291 35.1322 49.0463 35.3391 48.4997C35.5461 47.9531 35.8613 47.454 36.266 47.0324C36.6707 46.6107 37.1565 46.2752 37.6941 46.0461C38.2317 45.8169 38.8102 45.6987 39.3946 45.6987C39.979 45.6987 40.5574 45.8169 41.0951 46.0461C41.6327 46.2752 42.1184 46.6107 42.5231 47.0324C42.9278 47.454 43.2431 47.9531 43.4501 48.4997C43.657 49.0463 43.7513 49.6291 43.7273 50.213ZM41.8292 50.213C41.8553 49.8769 41.8115 49.5391 41.7008 49.2208C41.5901 48.9024 41.4147 48.6104 41.1858 48.363C40.9568 48.1156 40.6792 47.9182 40.3703 47.7832C40.0614 47.6483 39.728 47.5786 39.3909 47.5786C39.0539 47.5786 38.7204 47.6483 38.4116 47.7832C38.1027 47.9182 37.8251 48.1156 37.5961 48.363C37.3672 48.6104 37.1918 48.9024 37.0811 49.2208C36.9703 49.5391 36.9266 49.8769 36.9526 50.213C36.9266 50.5491 36.9703 50.8869 37.0811 51.2053C37.1918 51.5236 37.3672 51.8157 37.5961 52.063C37.8251 52.3104 38.1027 52.5078 38.4116 52.6428C38.7204 52.7778 39.0539 52.8474 39.3909 52.8474C39.728 52.8474 40.0614 52.7778 40.3703 52.6428C40.6792 52.5078 40.9568 52.3104 41.1858 52.063C41.4147 51.8157 41.5901 51.5236 41.7008 51.2053C41.8115 50.8869 41.8553 50.5491 41.8292 50.213Z" fill="#FBBC04"/>
<path d="M53.1959 46.1102V53.9654C53.1959 57.1921 51.2759 58.5208 49.0128 58.5208C48.1799 58.5253 47.3645 58.2821 46.6703 57.8219C45.9761 57.3617 45.4345 56.7054 45.1144 55.9365L46.8008 55.2064C46.9707 55.654 47.2694 56.0413 47.6592 56.3193C48.049 56.5973 48.5123 56.7537 48.9909 56.7687C50.4509 56.7687 51.3416 55.8707 51.3416 54.199V53.5711H51.2978C51.0058 53.9007 50.6456 54.1627 50.2422 54.3392C49.8388 54.5157 49.4019 54.6024 48.9617 54.5932C47.8 54.5932 46.6859 54.1317 45.8644 53.3103C45.043 52.4888 44.5815 51.3747 44.5815 50.213C44.5815 49.0513 45.043 47.9372 45.8644 47.1157C46.6859 46.2943 47.8 45.8328 48.9617 45.8328C49.4004 45.8247 49.8357 45.9104 50.2386 46.0841C50.6415 46.2579 51.0026 46.5157 51.2978 46.8402H51.3635V46.1102H53.1959ZM51.4949 50.2422C51.5217 49.9112 51.4816 49.5782 51.3771 49.2631C51.2725 48.9479 51.1056 48.657 50.8862 48.4077C50.6669 48.1584 50.3996 47.9557 50.1003 47.8119C49.8011 47.668 49.4759 47.5858 49.1442 47.5703C48.8073 47.5824 48.4761 47.6615 48.1701 47.8029C47.864 47.9443 47.5892 48.1452 47.3616 48.3939C47.134 48.6425 46.9581 48.934 46.8443 49.2514C46.7305 49.5687 46.6809 49.9055 46.6986 50.2422C46.6829 50.5766 46.7341 50.9107 46.8491 51.2251C46.9641 51.5395 47.1406 51.8278 47.3683 52.0732C47.596 52.3186 47.8703 52.5161 48.1752 52.6542C48.4802 52.7923 48.8096 52.8683 49.1442 52.8776C49.4746 52.8659 49.7991 52.7873 50.0983 52.6466C50.3974 52.5059 50.665 52.306 50.8847 52.0589C51.1044 51.8119 51.2717 51.5229 51.3766 51.2094C51.4815 50.8959 51.5217 50.5644 51.4949 50.2349V50.2422Z" fill="#4285F4"/>
<path d="M56.5759 41.467V54.3302H54.6487V41.467H56.5759Z" fill="#34A853"/>
<path d="M64.1683 51.6585L65.6721 52.6806C65.2706 53.2798 64.7274 53.7705 64.0906 54.1093C63.4538 54.4481 62.7433 54.6243 62.022 54.6225C61.4482 54.6307 60.8788 54.5224 60.3481 54.3041C59.8174 54.0859 59.3365 53.7622 58.9345 53.3527C58.5325 52.9432 58.2178 52.4564 58.0094 51.9218C57.801 51.3871 57.7033 50.8158 57.7221 50.2423C57.6366 49.2563 57.917 48.2734 58.5097 47.4808C59.1024 46.6883 59.966 46.1416 60.9359 45.9449C61.9058 45.7482 62.9142 45.9153 63.7688 46.4143C64.6234 46.9134 65.2646 47.7094 65.5699 48.6508L65.767 49.1545L59.9268 51.5709C60.1088 51.98 60.4091 52.3251 60.789 52.5619C61.1689 52.7988 61.6111 52.9164 62.0585 52.8996C62.4868 52.8899 62.9055 52.7707 63.2748 52.5535C63.6441 52.3363 63.9517 52.0282 64.1683 51.6585ZM59.5618 50.0816L63.4893 48.461C63.3321 48.1702 63.094 47.9313 62.8037 47.7733C62.5135 47.6152 62.1836 47.5447 61.8541 47.5703C61.5386 47.5844 61.2289 47.6605 60.9429 47.7944C60.6568 47.9283 60.4 48.1173 60.187 48.3505C59.9741 48.5838 59.8093 48.8568 59.702 49.1538C59.5947 49.4509 59.5471 49.7662 59.5618 50.0816Z" fill="#EA4335"/>
</g>
<defs>
<clipPath id="clip0_44_77">
<rect width="101" height="17.5208" fill="white" transform="translate(11 41)"/>
</clipPath>
</defs>
</svg>
