<svg width="32" height="32" viewBox="0 0 32 32" fill="none" xmlns="http://www.w3.org/2000/svg">
<rect width="32" height="32" rx="10" fill="white"/>
<path d="M21 5.5H11C8.23858 5.5 6 7.73858 6 10.5V20.5C6 23.2614 8.23858 25.5 11 25.5H21C23.7614 25.5 26 23.2614 26 20.5V10.5C26 7.73858 23.7614 5.5 21 5.5Z" stroke="#292A2C" stroke-width="2" stroke-linecap="round" stroke-linejoin="round"/>
<path d="M20 14.8701C20.1234 15.7023 19.9812 16.5523 19.5937 17.2991C19.2062 18.0459 18.5931 18.6515 17.8416 19.0297C17.0901 19.408 16.2384 19.5397 15.4077 19.406C14.5771 19.2723 13.8097 18.8801 13.2148 18.2852C12.6199 17.6903 12.2277 16.9229 12.094 16.0923C11.9604 15.2616 12.092 14.41 12.4703 13.6584C12.8485 12.9069 13.4541 12.2938 14.2009 11.9063C14.9477 11.5188 15.7977 11.3766 16.63 11.5001C17.4789 11.6259 18.2648 12.0215 18.8716 12.6284C19.4785 13.2352 19.8741 14.0211 20 14.8701Z" stroke="#292A2C" stroke-width="2" stroke-linecap="round" stroke-linejoin="round"/>
<path d="M21.5 10H21.51" stroke="#292A2C" stroke-width="2" stroke-linecap="round" stroke-linejoin="round"/>
</svg>
