<svg width="36" height="36" viewBox="0 0 36 36" fill="none" xmlns="http://www.w3.org/2000/svg">
<path fill-rule="evenodd" clip-rule="evenodd" d="M12.0001 18H7.46408C7.02381 18.7626 6.34423 19.3586 5.53072 19.6955C4.71721 20.0325 3.81525 20.0916 2.96472 19.8637C2.11418 19.6358 1.36262 19.1336 0.826584 18.435C0.290549 17.7365 0 16.8805 0 16C0 15.1195 0.290549 14.2635 0.826584 13.565C1.36262 12.8664 2.11418 12.3642 2.96472 12.1363C3.81525 11.9084 4.71721 11.9675 5.53072 12.3045C6.34423 12.6414 7.02381 13.2374 7.46408 14H12.0001V4C12.0001 2.93913 12.4215 1.92172 13.1716 1.17157C13.9218 0.421427 14.9392 0 16.0001 0H32C33.0609 0 34.0783 0.421427 34.8284 1.17157C35.5786 1.92172 36 2.93913 36 4V32C36 33.0609 35.5786 34.0783 34.8284 34.8284C34.0783 35.5786 33.0609 36 32 36H16.0001C14.9392 36 13.9218 35.5786 13.1716 34.8284C12.4215 34.0783 12.0001 33.0609 12.0001 32V18ZM16.0001 18V32H32V4H16.0001V14H20.536C20.9763 13.2374 21.6559 12.6414 22.4694 12.3045C23.2829 11.9675 24.1849 11.9084 25.0354 12.1363C25.8859 12.3642 26.6375 12.8664 27.1735 13.565C27.7096 14.2635 28.0001 15.1195 28.0001 16C28.0001 16.8805 27.7096 17.7365 27.1735 18.435C26.6375 19.1336 25.8859 19.6358 25.0354 19.8637C24.1849 20.0916 23.2829 20.0325 22.4694 19.6955C21.6559 19.3586 20.9763 18.7626 20.536 18H16.0001Z" fill="white"/>
</svg>
