<svg width="36" height="36" viewBox="0 0 36 36" fill="none" xmlns="http://www.w3.org/2000/svg">
<path id="Vector" d="M27 13.0909H10.8V9.81818H27V13.0909ZM9 9.81818H5.4V13.0909H9V9.81818ZM9 4.90909H5.4V8.18182H9V4.90909ZM14.4 4.90909H10.8V8.18182H14.4V4.90909ZM19.8 26.1818V29.4545H21.6C22.59 29.4545 23.4 30.1909 23.4 31.0909H36V34.3636H23.4C23.4 35.2636 22.59 36 21.6 36H14.4C13.41 36 12.6 35.2636 12.6 34.3636H0V31.0909H12.6C12.6 30.1909 13.41 29.4545 14.4 29.4545H16.2V26.1818H3.6C1.602 26.1818 0 24.7255 0 22.9091V3.27273C0 2.40475 0.379284 1.57232 1.05442 0.95856C1.72955 0.344804 2.64522 0 3.6 0H32.4C34.398 0 36 1.45636 36 3.27273V22.9091C36 24.7255 34.398 26.1818 32.4 26.1818H19.8ZM32.4 22.9091V3.27273H3.6V22.9091H32.4ZM16.2 8.18182H30.6V4.90909H16.2V8.18182ZM5.4 18H16.2V14.7273H5.4V18ZM19.8 21.2727H30.6V18H19.8V21.2727Z" fill="white"/>
</svg>
