<svg width="36" height="36" viewBox="0 0 36 36" fill="none" xmlns="http://www.w3.org/2000/svg">
<rect width="36" height="36" fill="#1E1E1E"/>
<g id="HOME" clip-path="url(#clip0_1_6)">
<rect width="1440" height="4122" transform="translate(-726 -2240)" fill="#1A1919"/>
<g id="Features Container">
<rect width="1440" height="1527" transform="translate(-726 -858)" fill="#0D0D0D"/>
<g id="Features">
<g id="Frame 34138">
<g id="Group 14">
<g id="Group 8">
<path id="Vector" d="M9.6 15.75H16.8V36H9.6V15.75ZM12 33.75H14.4V18H12V33.75ZM19.2 20.25H26.4V36H19.2V20.25ZM21.6 33.75H24V22.5H21.6V33.75ZM0 24.75H7.2V36H0V24.75ZM2.4 33.75H4.8V27H2.4V33.75ZM28.8 11.25H36V36H28.8V11.25ZM31.2 33.75H33.6V13.5H31.2V33.75ZM26.0438 10.916C26.2813 11.3965 26.4 11.8828 26.4 12.375C26.4 12.8438 26.3063 13.2832 26.1188 13.6934C25.9313 14.1035 25.675 14.4609 25.35 14.7656C25.025 15.0703 24.6438 15.3105 24.2063 15.4863C23.7688 15.6621 23.3 15.75 22.8 15.75C22.3 15.75 21.8313 15.6621 21.3938 15.4863C20.9563 15.3105 20.575 15.0703 20.25 14.7656C19.925 14.4609 19.6688 14.1035 19.4813 13.6934C19.2938 13.2832 19.2 12.8438 19.2 12.375V12.1641C19.2 12.0938 19.2063 12.0234 19.2188 11.9531L15.6938 10.3008C15.3688 10.6055 14.9875 10.8398 14.55 11.0039C14.1125 11.168 13.6625 11.25 13.2 11.25C12.675 11.25 12.1563 11.1387 11.6438 10.916L6.84375 15.416C7.08125 15.8965 7.2 16.3828 7.2 16.875C7.2 17.3438 7.10625 17.7832 6.91875 18.1934C6.73125 18.6035 6.475 18.9609 6.15 19.2656C5.825 19.5703 5.44375 19.8105 5.00625 19.9863C4.56875 20.1621 4.1 20.25 3.6 20.25C3.1 20.25 2.63125 20.1621 2.19375 19.9863C1.75625 19.8105 1.375 19.5703 1.05 19.2656C0.725 18.9609 0.46875 18.6035 0.28125 18.1934C0.09375 17.7832 0 17.3438 0 16.875C0 16.4062 0.09375 15.9668 0.28125 15.5566C0.46875 15.1465 0.725 14.7891 1.05 14.4844C1.375 14.1797 1.75625 13.9395 2.19375 13.7637C2.63125 13.5879 3.1 13.5 3.6 13.5C4.125 13.5 4.64375 13.6113 5.15625 13.834L9.95625 9.33398C9.71875 8.85352 9.6 8.36719 9.6 7.875C9.6 7.40625 9.69375 6.9668 9.88125 6.55664C10.0688 6.14648 10.325 5.78906 10.65 5.48438C10.975 5.17969 11.3563 4.93945 11.7938 4.76367C12.2313 4.58789 12.7 4.5 13.2 4.5C13.7 4.5 14.1688 4.58789 14.6063 4.76367C15.0438 4.93945 15.425 5.17969 15.75 5.48438C16.075 5.78906 16.3313 6.14648 16.5188 6.55664C16.7063 6.9668 16.8 7.40625 16.8 7.875V8.08594C16.8 8.15625 16.7938 8.22656 16.7812 8.29688L20.3063 9.94922C20.6313 9.64453 21.0125 9.41016 21.45 9.24609C21.8875 9.08203 22.3375 9 22.8 9C23.325 9 23.8438 9.11133 24.3563 9.33398L29.1563 4.83398C28.9188 4.35352 28.8 3.86719 28.8 3.375C28.8 2.90625 28.8938 2.4668 29.0813 2.05664C29.2688 1.64648 29.525 1.28906 29.85 0.984375C30.175 0.679688 30.5563 0.439453 30.9938 0.263672C31.4313 0.0878906 31.9 0 32.4 0C32.9 0 33.3688 0.0878906 33.8063 0.263672C34.2438 0.439453 34.625 0.679688 34.95 0.984375C35.275 1.28906 35.5312 1.64648 35.7188 2.05664C35.9062 2.4668 36 2.90625 36 3.375C36 3.84375 35.9062 4.2832 35.7188 4.69336C35.5312 5.10352 35.275 5.46094 34.95 5.76562C34.625 6.07031 34.2438 6.31055 33.8063 6.48633C33.3688 6.66211 32.9 6.75 32.4 6.75C31.875 6.75 31.3563 6.63867 30.8438 6.41602L26.0438 10.916ZM3.6 18C3.925 18 4.20625 17.8887 4.44375 17.666C4.68125 17.4434 4.8 17.1797 4.8 16.875C4.8 16.5703 4.68125 16.3066 4.44375 16.084C4.20625 15.8613 3.925 15.75 3.6 15.75C3.275 15.75 2.99375 15.8613 2.75625 16.084C2.51875 16.3066 2.4 16.5703 2.4 16.875C2.4 17.1797 2.51875 17.4434 2.75625 17.666C2.99375 17.8887 3.275 18 3.6 18ZM32.4 2.25C32.075 2.25 31.7938 2.36133 31.5563 2.58398C31.3188 2.80664 31.2 3.07031 31.2 3.375C31.2 3.67969 31.3188 3.94336 31.5563 4.16602C31.7938 4.38867 32.075 4.5 32.4 4.5C32.725 4.5 33.0063 4.38867 33.2438 4.16602C33.4813 3.94336 33.6 3.67969 33.6 3.375C33.6 3.07031 33.4813 2.80664 33.2438 2.58398C33.0063 2.36133 32.725 2.25 32.4 2.25ZM13.2 9C13.525 9 13.8063 8.88867 14.0438 8.66602C14.2813 8.44336 14.4 8.17969 14.4 7.875C14.4 7.57031 14.2813 7.30664 14.0438 7.08398C13.8063 6.86133 13.525 6.75 13.2 6.75C12.875 6.75 12.5938 6.86133 12.3563 7.08398C12.1188 7.30664 12 7.57031 12 7.875C12 8.17969 12.1188 8.44336 12.3563 8.66602C12.5938 8.88867 12.875 9 13.2 9ZM22.8 13.5C23.125 13.5 23.4062 13.3887 23.6438 13.166C23.8813 12.9434 24 12.6797 24 12.375C24 12.0703 23.8813 11.8066 23.6438 11.584C23.4062 11.3613 23.125 11.25 22.8 11.25C22.475 11.25 22.1938 11.3613 21.9563 11.584C21.7188 11.8066 21.6 12.0703 21.6 12.375C21.6 12.6797 21.7188 12.9434 21.9563 13.166C22.1938 13.3887 22.475 13.5 22.8 13.5Z" fill="white"/>
</g>
</g>
</g>
</g>
</g>
</g>
<defs>
<clipPath id="clip0_1_6">
<rect width="1440" height="4122" fill="white" transform="translate(-726 -2240)"/>
</clipPath>
</defs>
</svg>
