<svg width="24" height="24" viewBox="0 0 24 24" fill="none" xmlns="http://www.w3.org/2000/svg">
<rect width="24" height="24" rx="5" fill="#0D0D0D"/>
<path opacity="0.2" d="M18.8537 13.5625L13.5625 18.8538C13.4687 18.9474 13.3416 19.0001 13.2091 19.0001C13.0765 19.0001 12.9494 18.9474 12.8556 18.8538L6.64625 12.6462C6.55266 12.5526 6.50006 12.4256 6.5 12.2931V6.5H12.2931C12.4256 6.50006 12.5526 6.55266 12.6462 6.64625L18.8537 12.8538C18.9004 12.9002 18.9375 12.9554 18.9627 13.0162C18.988 13.0771 19.001 13.1423 19.001 13.2081C19.001 13.274 18.988 13.3392 18.9627 13.4C18.9375 13.4608 18.9004 13.516 18.8537 13.5625Z" fill="url(#paint0_linear_186_123)"/>
<path d="M19.2069 12.5L13 6.29313C12.9075 6.19987 12.7973 6.12593 12.676 6.0756C12.5546 6.02528 12.4245 5.99959 12.2931 6.00001H6.50001C6.3674 6.00001 6.24022 6.05268 6.14645 6.14645C6.05268 6.24022 6.00001 6.3674 6.00001 6.50001V12.2931C5.99959 12.4245 6.02528 12.5546 6.0756 12.676C6.12593 12.7973 6.19987 12.9075 6.29313 13L12.5 19.2069C12.5929 19.2998 12.7031 19.3734 12.8245 19.4237C12.9458 19.474 13.0759 19.4999 13.2072 19.4999C13.3385 19.4999 13.4686 19.474 13.5899 19.4237C13.7113 19.3734 13.8215 19.2998 13.9144 19.2069L19.2069 13.9144C19.2998 13.8215 19.3734 13.7113 19.4237 13.5899C19.474 13.4686 19.4999 13.3385 19.4999 13.2072C19.4999 13.0759 19.474 12.9458 19.4237 12.8245C19.3734 12.7031 19.2998 12.5929 19.2069 12.5ZM13.2069 18.5L7.00001 12.2931V7.00001H12.2931L18.5 13.2069L13.2069 18.5ZM10 9.25001C10 9.39834 9.95602 9.54335 9.87361 9.66668C9.7912 9.79002 9.67406 9.88615 9.53702 9.94291C9.39997 9.99968 9.24917 10.0145 9.10369 9.98559C8.9582 9.95666 8.82456 9.88522 8.71967 9.78034C8.61479 9.67545 8.54335 9.54181 8.51442 9.39632C8.48548 9.25084 8.50033 9.10004 8.5571 8.96299C8.61386 8.82595 8.70999 8.70881 8.83333 8.6264C8.95666 8.54399 9.10167 8.50001 9.25001 8.50001C9.44892 8.50001 9.63968 8.57902 9.78034 8.71967C9.92099 8.86033 10 9.05109 10 9.25001Z" fill="url(#paint1_linear_186_123)"/>
<defs>
<linearGradient id="paint0_linear_186_123" x1="11.8855" y1="6.5" x2="21.1251" y2="15.8812" gradientUnits="userSpaceOnUse">
<stop stop-color="#2EFFE1"/>
<stop offset="1" stop-color="#7DEE53"/>
</linearGradient>
<linearGradient id="paint1_linear_186_123" x1="11.8158" y1="5.99999" x2="21.7945" y2="16.1307" gradientUnits="userSpaceOnUse">
<stop stop-color="#2EFFE1"/>
<stop offset="1" stop-color="#7DEE53"/>
</linearGradient>
</defs>
</svg>
