<svg width="32" height="32" viewBox="0 0 32 32" fill="none" xmlns="http://www.w3.org/2000/svg">
<rect width="32" height="32" rx="10" fill="white"/>
<path d="M27 6.50005C26.0424 7.17552 24.9821 7.69216 23.86 8.03005C23.2577 7.33756 22.4573 6.84674 21.567 6.62397C20.6767 6.40121 19.7395 6.45724 18.8821 6.7845C18.0247 7.11176 17.2884 7.69445 16.773 8.45376C16.2575 9.21308 15.9877 10.1124 16 11.03V12.03C14.2426 12.0756 12.5013 11.6859 10.931 10.8955C9.36074 10.1051 8.01032 8.93868 7 7.50005C7 7.50005 3 16.5 12 20.5C9.94053 21.898 7.48716 22.599 5 22.5C14 27.5 25 22.5 25 11C24.9991 10.7215 24.9723 10.4436 24.92 10.17C25.9406 9.16354 26.6608 7.89276 27 6.50005V6.50005Z" stroke="#292A2C" stroke-width="2" stroke-linecap="round" stroke-linejoin="round"/>
</svg>
