<svg width="13" height="14" viewBox="0 0 13 14" fill="none" xmlns="http://www.w3.org/2000/svg">
<path d="M7.50001 5.01075V2.51075C7.50001 2.37815 7.55268 2.25097 7.64645 2.1572C7.74022 2.06343 7.8674 2.01075 8.00001 2.01075C8.13262 2.01075 8.25979 2.06343 8.35356 2.1572C8.44733 2.25097 8.50001 2.37815 8.50001 2.51075V3.80388L10.6463 1.657C10.7401 1.56318 10.8673 1.51048 11 1.51048C11.1327 1.51048 11.2599 1.56318 11.3538 1.657C11.4476 1.75082 11.5003 1.87807 11.5003 2.01075C11.5003 2.14344 11.4476 2.27068 11.3538 2.3645L9.20751 4.51075H10.5C10.6326 4.51075 10.7598 4.56343 10.8536 4.6572C10.9473 4.75097 11 4.87815 11 5.01075C11 5.14336 10.9473 5.27054 10.8536 5.36431C10.7598 5.45808 10.6326 5.51075 10.5 5.51075H8.00001C7.8674 5.51075 7.74022 5.45808 7.64645 5.36431C7.55268 5.27054 7.50001 5.14336 7.50001 5.01075ZM12.4925 9.95325C12.3811 10.8001 11.9652 11.5775 11.3224 12.1402C10.6797 12.7028 9.8542 13.0123 9.00001 13.0108C4.03751 13.0108 6.53516e-06 8.97325 6.53516e-06 4.01075C-0.00163973 3.15659 0.307796 2.33106 0.870485 1.68843C1.43317 1.0458 2.21061 0.630053 3.05751 0.51888C3.27159 0.492683 3.48841 0.536405 3.67561 0.643522C3.86281 0.75064 4.01037 0.915411 4.09626 1.11325L5.41626 4.06013V4.06763C5.48194 4.21916 5.50906 4.3846 5.49521 4.54918C5.48136 4.71375 5.42696 4.87233 5.33688 5.01075C5.32563 5.02763 5.31376 5.04325 5.30126 5.05888L4.00001 6.60138C4.46813 7.55263 5.46313 8.53888 6.42688 9.00825L7.94813 7.71388C7.96307 7.70132 7.97872 7.68963 7.99501 7.67888C8.13332 7.58663 8.29244 7.53032 8.45799 7.51504C8.62353 7.49976 8.79028 7.526 8.94313 7.59138L8.95126 7.59513L11.8956 8.9145C12.0939 8.99999 12.2592 9.14737 12.3668 9.3346C12.4744 9.52184 12.5185 9.73888 12.4925 9.95325ZM11.5 9.82825C11.5 9.82825 11.4956 9.82825 11.4931 9.82825L8.55563 8.51263L7.03376 9.807C7.01915 9.81971 7.0037 9.8314 6.98751 9.842C6.8436 9.93801 6.67726 9.99504 6.50472 10.0075C6.33219 10.02 6.15936 9.98753 6.00313 9.91325C4.83251 9.34763 3.66563 8.1895 3.09938 7.03138C3.0244 6.87629 2.99075 6.70446 3.0017 6.53254C3.01265 6.36063 3.06783 6.19445 3.16188 6.05013C3.17248 6.03318 3.18439 6.01709 3.19751 6.002L4.50001 4.45763L3.18751 1.52013C3.18726 1.51764 3.18726 1.51512 3.18751 1.51263C2.58142 1.59169 2.02493 1.88898 1.62226 2.34883C1.2196 2.80867 0.998369 3.39953 1.00001 4.01075C1.00232 6.13178 1.84592 8.16526 3.34571 9.66505C4.8455 11.1648 6.87899 12.0084 9.00001 12.0108C9.61086 12.0129 10.2016 11.7924 10.6617 11.3906C11.1218 10.9888 11.4198 10.4332 11.5 9.82763V9.82825Z" fill="url(#paint0_linear_767_440)"/>
<defs>
<linearGradient id="paint0_linear_767_440" x1="5.385" y1="0.51147" x2="14.624" y2="9.89171" gradientUnits="userSpaceOnUse">
<stop stop-color="#2EFFE1"/>
<stop offset="1" stop-color="#7DEE53"/>
</linearGradient>
</defs>
</svg>
