<svg width="10" height="15" viewBox="0 0 10 15" fill="none" xmlns="http://www.w3.org/2000/svg">
<path d="M8.5 5.37146C8.91977 5.05664 9.22984 4.61772 9.38629 4.11688C9.54274 3.61604 9.53764 3.07867 9.37171 2.58089C9.20579 2.08311 8.88744 1.65016 8.46178 1.34335C8.03612 1.03655 7.52471 0.87146 7 0.87146H2.5C1.9753 0.87146 1.46389 1.03655 1.03823 1.34335C0.612565 1.65016 0.294223 2.08311 0.128297 2.58089C-0.0376302 3.07867 -0.0427296 3.61604 0.113721 4.11688C0.270171 4.61772 0.58024 5.05664 1 5.37146C0.68218 5.60965 0.425678 5.92013 0.251745 6.27719C0.077812 6.63425 -0.00854651 7.02761 -0.000177229 7.42469C0.00819205 7.82178 0.111048 8.21115 0.299872 8.56056C0.488695 8.90998 0.758052 9.20938 1.08563 9.43396C0.713027 9.71724 0.418897 10.0909 0.231088 10.5197C0.0432794 10.9484 -0.0319916 11.418 0.0124025 11.8839C0.0567965 12.3499 0.219386 12.7968 0.484776 13.1823C0.750166 13.5679 1.10957 13.8793 1.52897 14.0872C1.94836 14.295 2.41386 14.3923 2.88139 14.37C3.34892 14.3476 3.803 14.2063 4.20064 13.9594C4.59829 13.7125 4.92633 13.3682 5.15371 12.959C5.38109 12.5499 5.50028 12.0895 5.5 11.6215V9.37146C5.76265 9.56844 6.06152 9.71177 6.37955 9.79324C6.69759 9.87472 7.02855 9.89276 7.35356 9.84633C7.67856 9.7999 7.99124 9.68991 8.27374 9.52265C8.55624 9.35538 8.80302 9.1341 9 8.87146C9.19699 8.60882 9.34031 8.30995 9.42179 7.99191C9.50327 7.67388 9.52131 7.34291 9.47488 7.01791C9.42845 6.6929 9.31846 6.38022 9.15119 6.09773C8.98392 5.81523 8.76265 5.56844 8.5 5.37146ZM8.5 3.37146C8.5 3.76928 8.34197 4.15082 8.06067 4.43212C7.77936 4.71342 7.39783 4.87146 7 4.87146H5.5V1.87146H7C7.39783 1.87146 7.77936 2.0295 8.06067 2.3108C8.34197 2.5921 8.5 2.97364 8.5 3.37146ZM1 3.37146C1 2.97364 1.15804 2.5921 1.43934 2.3108C1.72065 2.0295 2.10218 1.87146 2.5 1.87146H4.5V4.87146H2.5C2.10218 4.87146 1.72065 4.71342 1.43934 4.43212C1.15804 4.15082 1 3.76928 1 3.37146ZM2.5 8.87146C2.10218 8.87146 1.72065 8.71342 1.43934 8.43212C1.15804 8.15082 1 7.76928 1 7.37146C1 6.97364 1.15804 6.5921 1.43934 6.3108C1.72065 6.0295 2.10218 5.87146 2.5 5.87146H4.5V8.87146H2.5ZM4.5 11.6215C4.5 11.9676 4.39737 12.3059 4.20508 12.5937C4.01278 12.8815 3.73947 13.1058 3.4197 13.2382C3.09993 13.3707 2.74806 13.4054 2.4086 13.3378C2.06913 13.2703 1.75731 13.1036 1.51257 12.8589C1.26783 12.6142 1.10115 12.3023 1.03363 11.9629C0.966106 11.6234 1.00076 11.2715 1.13322 10.9518C1.26567 10.632 1.48997 10.3587 1.77776 10.1664C2.06554 9.9741 2.40389 9.87146 2.75 9.87146H4.5V11.6215ZM7 8.87146C6.70333 8.87146 6.41332 8.78349 6.16665 8.61866C5.91998 8.45384 5.72772 8.21957 5.61419 7.94549C5.50065 7.6714 5.47095 7.3698 5.52883 7.07882C5.5867 6.78785 5.72957 6.52058 5.93934 6.3108C6.14912 6.10102 6.4164 5.95816 6.70737 5.90028C6.99834 5.8424 7.29994 5.87211 7.57403 5.98564C7.84812 6.09917 8.08239 6.29143 8.24721 6.5381C8.41203 6.78478 8.5 7.07479 8.5 7.37146C8.5 7.76928 8.34197 8.15082 8.06067 8.43212C7.77936 8.71342 7.39783 8.87146 7 8.87146Z" fill="url(#paint0_linear_186_193)"/>
<defs>
<linearGradient id="paint0_linear_186_193" x1="4.09225" y1="0.871455" x2="13.5343" y2="7.61685" gradientUnits="userSpaceOnUse">
<stop stop-color="#2EFFE1"/>
<stop offset="1" stop-color="#7DEE53"/>
</linearGradient>
</defs>
</svg>
