<svg width="14" height="14" viewBox="0 0 14 14" fill="none" xmlns="http://www.w3.org/2000/svg">
<path d="M13.8538 4.76774L10.1038 1.01774C10.0573 0.971249 10.0022 0.934369 9.94148 0.909207C9.88078 0.884045 9.81571 0.871094 9.75001 0.871094C9.6843 0.871094 9.61924 0.884045 9.55854 0.909207C9.49784 0.934369 9.44269 0.971249 9.39626 1.01774L1.31938 9.09461C0.794584 9.61941 0.499756 10.3312 0.499756 11.0734C0.499756 11.8155 0.794584 12.5273 1.31938 13.0521C1.84418 13.5769 2.55596 13.8717 3.29813 13.8717C4.04031 13.8717 4.75208 13.5769 5.27688 13.0521L12.27 6.05899L13.6581 5.59649C13.739 5.56957 13.8117 5.52242 13.8693 5.4595C13.9268 5.39657 13.9673 5.31998 13.9869 5.23699C14.0065 5.154 14.0046 5.06738 13.9813 4.98536C13.958 4.90334 13.9141 4.82864 13.8538 4.76836V4.76774ZM4.56938 12.3446C4.23014 12.6716 3.77613 12.8523 3.305 12.848C2.83387 12.8436 2.38327 12.6545 2.05012 12.3214C1.71697 11.9882 1.52788 11.5376 1.52354 11.0665C1.51919 10.5954 1.69993 10.1414 2.02688 9.80211L3.82688 8.00211C4.35626 7.82086 5.18626 7.75211 6.26876 8.31461C6.93126 8.66086 7.53001 8.81461 8.05376 8.86024L4.56938 12.3446ZM11.8419 5.14711C11.7682 5.17159 11.7012 5.21288 11.6463 5.26774L9.17313 7.74086C8.64376 7.92211 7.81376 7.99086 6.73126 7.42836C6.06876 7.08211 5.47001 6.92836 4.94626 6.88274L9.75001 2.07836L12.5744 4.90274L11.8419 5.14711Z" fill="url(#paint0_linear_186_180)"/>
<defs>
<linearGradient id="paint0_linear_186_180" x1="6.3159" y1="0.871089" x2="15.9132" y2="10.9894" gradientUnits="userSpaceOnUse">
<stop stop-color="#2EFFE1"/>
<stop offset="1" stop-color="#7DEE53"/>
</linearGradient>
</defs>
</svg>
