<svg width="32" height="32" viewBox="0 0 32 32" fill="none" xmlns="http://www.w3.org/2000/svg">
<rect width="32" height="32" rx="10" fill="white"/>
<g clip-path="url(#clip0_854_807)">
<path d="M13 22.5001C8 24.0001 8 20.0001 6 19.5001M20 25.5001V21.6301C20.0375 21.1532 19.9731 20.6739 19.811 20.2239C19.6489 19.7738 19.3929 19.3635 19.06 19.0201C22.2 18.6701 25.5 17.4801 25.5 12.0201C25.4997 10.6239 24.9627 9.28126 24 8.27006C24.4559 7.04857 24.4236 5.69841 23.91 4.50006C23.91 4.50006 22.73 4.15006 20 5.98006C17.708 5.35888 15.292 5.35888 13 5.98006C10.27 4.15006 9.09 4.50006 9.09 4.50006C8.57638 5.69841 8.54414 7.04857 9 8.27006C8.03013 9.28876 7.49252 10.6435 7.5 12.0501C7.5 17.4701 10.8 18.6601 13.94 19.0501C13.611 19.39 13.3573 19.7955 13.1953 20.24C13.0334 20.6845 12.9668 21.1581 13 21.6301V25.5001" stroke="#292A2C" stroke-width="2" stroke-linecap="round" stroke-linejoin="round"/>
</g>
<defs>
<clipPath id="clip0_854_807">
<rect width="24" height="24" fill="white" transform="translate(4 3.5)"/>
</clipPath>
</defs>
</svg>
