<svg width="100" height="100" viewBox="0 0 100 100" fill="none" xmlns="http://www.w3.org/2000/svg">
<rect width="100" height="100" rx="10" fill="black"/>
<g clip-path="url(#clip0_44_73)">
<mask id="mask0_44_73" style="mask-type:luminance" maskUnits="userSpaceOnUse" x="14" y="39" width="72" height="22">
<path d="M86 39H14V60.4054H86V39Z" fill="white"/>
</mask>
<g mask="url(#mask0_44_73)">
<path d="M77.3661 60.2372C77.1799 60.2372 77.0061 60.1873 76.8448 60.0998L75.1943 59.1134C74.9461 58.976 75.0702 58.926 75.1446 58.9011C75.4797 58.7887 75.5417 58.7637 75.8892 58.5639C75.9265 58.5389 75.9761 58.5515 76.0134 58.5764L77.2792 59.3381C77.3288 59.3631 77.3909 59.3631 77.4281 59.3381L82.3799 56.4535C82.4292 56.4286 82.4545 56.3786 82.4545 56.3162V50.5595C82.4545 50.4971 82.4292 50.4472 82.3799 50.4222L77.4281 47.5501C77.3785 47.5251 77.3164 47.5251 77.2792 47.5501L72.3276 50.4222C72.2779 50.4472 72.2531 50.5096 72.2531 50.5595V56.3162C72.2531 56.3662 72.2779 56.4286 72.3276 56.4535L73.6803 57.2403C74.4125 57.6149 74.8716 57.1778 74.8716 56.7407V51.059C74.8716 50.9841 74.9336 50.9092 75.0206 50.9092H75.6534C75.7279 50.9092 75.8024 50.9716 75.8024 51.059V56.7407C75.8024 57.7273 75.2687 58.3017 74.338 58.3017C74.0526 58.3017 73.8292 58.3017 73.1962 57.9895L71.8932 57.2403C71.5705 57.0529 71.372 56.7033 71.372 56.3287V50.572C71.372 50.1974 71.5705 49.8478 71.8932 49.6604L76.8448 46.7759C77.1551 46.6011 77.577 46.6011 77.8873 46.7759L82.8391 49.6604C83.1615 49.8478 83.36 50.1974 83.36 50.572V56.3287C83.36 56.7033 83.1615 57.0529 82.8391 57.2403L77.8873 60.1248C77.7383 60.1873 77.5522 60.2372 77.3661 60.2372Z" fill="#5FA04E"/>
<path d="M78.9051 56.2788C76.733 56.2788 76.2863 55.2798 76.2863 54.4306C76.2863 54.3557 76.3483 54.2808 76.4352 54.2808H77.0805C77.155 54.2808 77.217 54.3307 77.217 54.4057C77.3163 55.0675 77.6017 55.3922 78.9174 55.3922C79.9598 55.3922 80.4067 55.1549 80.4067 54.593C80.4067 54.2683 80.2822 54.0311 78.6566 53.8687C77.3039 53.7313 76.46 53.4317 76.46 52.3452C76.46 51.3338 77.3039 50.7344 78.7187 50.7344C80.3075 50.7344 81.0891 51.2838 81.1883 52.4826C81.1883 52.5201 81.176 52.5575 81.1513 52.595C81.1261 52.62 81.0891 52.645 81.0515 52.645H80.3937C80.3321 52.645 80.2698 52.595 80.2575 52.5326C80.1083 51.8458 79.7237 51.621 78.7063 51.621C77.5645 51.621 77.428 52.0206 77.428 52.3203C77.428 52.6824 77.5893 52.7948 79.1282 52.9946C80.6545 53.1944 81.3745 53.4816 81.3745 54.5555C81.3745 55.6544 80.4683 56.2788 78.9051 56.2788Z" fill="#5FA04E"/>
<path d="M86.0538 50.2349C86.0538 50.7594 85.6192 51.1965 85.0977 51.1965C84.5769 51.1965 84.1423 50.7719 84.1423 50.2349C84.1423 49.6855 84.5892 49.2734 85.0977 49.2734C85.6069 49.2734 86.0538 49.698 86.0538 50.2349ZM84.2915 50.2349C84.2915 50.6845 84.6515 51.0466 85.0854 51.0466C85.5323 51.0466 85.8923 50.672 85.8923 50.2349C85.8923 49.7854 85.5323 49.4358 85.0854 49.4358C84.6638 49.4358 84.2915 49.7854 84.2915 50.2349ZM84.7384 49.698H85.1107C85.2346 49.698 85.483 49.698 85.483 49.9852C85.483 50.185 85.3585 50.2225 85.2839 50.2474C85.4331 50.2599 85.4454 50.3599 85.4577 50.4972C85.4701 50.5846 85.483 50.7345 85.5077 50.7844H85.2839C85.2839 50.7345 85.2469 50.4598 85.2469 50.4472C85.2346 50.3848 85.2099 50.3599 85.1354 50.3599H84.9492V50.7969H84.7384V49.698ZM84.9369 50.1725H85.0977C85.2346 50.1725 85.2592 50.0726 85.2592 50.0227C85.2592 49.8729 85.16 49.8729 85.0977 49.8729H84.9245V50.1725H84.9369Z" fill="#5FA04E"/>
<path fill-rule="evenodd" clip-rule="evenodd" d="M25.7772 50.3134C25.7772 50.0886 25.6531 49.8764 25.4546 49.764L20.2051 46.7046C20.1182 46.6546 20.0189 46.6296 19.9196 46.6172C19.9072 46.6172 19.87 46.6172 19.87 46.6172C19.7707 46.6172 19.6714 46.6546 19.5846 46.7046L14.3227 49.7515C14.1241 49.8639 14 50.0762 14 50.3134L14.0124 58.5051C14.0124 58.6175 14.0745 58.7299 14.1737 58.7798C14.273 58.8423 14.3971 58.8423 14.484 58.7798L17.6113 56.9816C17.8099 56.8693 17.934 56.657 17.934 56.4322V52.5986C17.934 52.3738 18.0581 52.1615 18.2567 52.0492L19.5846 51.2749C19.6838 51.2125 19.7955 51.1875 19.9072 51.1875C20.0189 51.1875 20.1306 51.2125 20.2175 51.2749L21.5453 52.0492C21.7439 52.1615 21.868 52.3738 21.868 52.5986V56.4322C21.868 56.657 21.9921 56.8693 22.1907 56.9816L25.2932 58.7798C25.3925 58.8423 25.5166 58.8423 25.6159 58.7798C25.7152 58.7299 25.7772 58.6175 25.7772 58.5051V50.3134Z" fill="white"/>
<path fill-rule="evenodd" clip-rule="evenodd" d="M51.0691 39.0375C50.9698 38.9875 50.8457 38.9875 50.7588 39.0375C50.6595 39.0999 50.5975 39.1998 50.5975 39.3122V47.4289C50.5975 47.5038 50.5602 47.5788 50.4858 47.6288C50.4113 47.6662 50.3369 47.6662 50.2624 47.6288L48.9469 46.867C48.7484 46.7547 48.5126 46.7547 48.314 46.867L43.0521 49.9264C42.8536 50.0388 42.7295 50.2511 42.7295 50.4758V56.5821C42.7295 56.807 42.8536 57.0192 43.0521 57.1316L48.314 60.191C48.5126 60.3034 48.7484 60.3034 48.9469 60.191L54.2088 57.1316C54.4074 57.0192 54.5315 56.807 54.5315 56.5821V41.3601C54.5315 41.1228 54.4074 40.9106 54.2088 40.7982L51.0691 39.0375ZM50.5851 54.5717C50.5851 54.6341 50.5602 54.6841 50.5106 54.709L48.7111 55.758C48.6615 55.783 48.5994 55.783 48.5498 55.758L46.7503 54.709C46.7007 54.6841 46.6759 54.6217 46.6759 54.5717V52.4739C46.6759 52.4114 46.7007 52.3614 46.7503 52.3365L48.5498 51.2875C48.5994 51.2626 48.6615 51.2626 48.7111 51.2875L50.5106 52.3365C50.5602 52.3614 50.5851 52.4239 50.5851 52.4739V54.5717Z" fill="white"/>
<path fill-rule="evenodd" clip-rule="evenodd" d="M68.5793 52.4238C68.7779 52.3114 68.8896 52.0992 68.8896 51.8744V50.3884C68.8896 50.1636 68.7655 49.9513 68.5793 49.839L63.3546 46.7921C63.1561 46.6797 62.9203 46.6797 62.7218 46.7921L57.4598 49.8514C57.2613 49.9638 57.1372 50.1761 57.1372 50.4009V56.5072C57.1372 56.732 57.2613 56.9443 57.4598 57.0566L62.6845 60.0536C62.8831 60.166 63.1189 60.166 63.305 60.0536L66.4696 58.2804C66.5689 58.2305 66.631 58.1181 66.631 58.0056C66.631 57.8933 66.5689 57.7809 66.4696 57.7309L61.1829 54.6715C61.0836 54.6091 61.0216 54.5092 61.0216 54.3968V52.4863C61.0216 52.3739 61.0836 52.2615 61.1829 52.2115L62.8334 51.2625C62.9328 51.2001 63.0568 51.2001 63.1561 51.2625L64.8066 52.2115C64.9059 52.274 64.968 52.3739 64.968 52.4863V53.9847C64.968 54.0972 65.03 54.2095 65.1293 54.2594C65.2286 54.3219 65.3527 54.3219 65.452 54.2594L68.5793 52.4238Z" fill="white"/>
<path fill-rule="evenodd" clip-rule="evenodd" d="M62.9577 52.1369C62.9949 52.1119 63.0446 52.1119 63.0818 52.1369L64.087 52.7238C64.1243 52.7488 64.149 52.7863 64.149 52.8362V54.01C64.149 54.0599 64.1243 54.0974 64.087 54.1224L63.0818 54.7093C63.0446 54.7343 62.9949 54.7343 62.9577 54.7093L61.9525 54.1224C61.9152 54.0974 61.8904 54.0599 61.8904 54.01V52.8362C61.8904 52.7863 61.9152 52.7488 61.9525 52.7238L62.9577 52.1369Z" fill="#5FA04E"/>
<path d="M34.5756 46.8172C34.377 46.7048 34.1412 46.7048 33.9426 46.8172L28.718 49.8516C28.5194 49.964 28.4077 50.1763 28.4077 50.4011V56.4824C28.4077 56.7072 28.5318 56.9194 28.718 57.0318L33.9426 60.0663C34.1412 60.1786 34.377 60.1786 34.5756 60.0663L39.8002 57.0318C39.9988 56.9194 40.1104 56.7072 40.1104 56.4824V50.4011C40.1104 50.1763 39.9864 49.964 39.8002 49.8516L34.5756 46.8172Z" fill="url(#paint0_linear_44_73)"/>
<path d="M39.8127 49.8515L34.5633 46.817C34.5136 46.7921 34.4516 46.7671 34.4019 46.7546L28.5195 56.8819C28.5692 56.9443 28.6312 56.9942 28.6933 57.0317L33.9428 60.0661C34.0917 60.1535 34.2654 60.1785 34.4267 60.1285L39.9493 49.9639C39.912 49.9139 39.8624 49.8765 39.8127 49.8515Z" fill="url(#paint1_linear_44_73)"/>
<path d="M39.8128 57.0317C39.9617 56.9442 40.0734 56.7944 40.123 56.632L34.3771 46.7421C34.2282 46.7171 34.0669 46.7296 33.9304 46.817L28.7181 49.8389L34.3399 60.1535C34.4143 60.141 34.5013 60.116 34.5757 60.0786L39.8128 57.0317Z" fill="url(#paint2_linear_44_73)"/>
</g>
</g>
<defs>
<linearGradient id="paint0_linear_44_73" x1="36.3869" y1="49.0771" x2="31.6156" y2="58.7504" gradientUnits="userSpaceOnUse">
<stop stop-color="#3F873F"/>
<stop offset="0.3296" stop-color="#3F8B3D"/>
<stop offset="0.6367" stop-color="#3E9638"/>
<stop offset="0.9341" stop-color="#3DA92E"/>
<stop offset="1" stop-color="#3DAE2B"/>
</linearGradient>
<linearGradient id="paint1_linear_44_73" x1="33.4652" y1="54.1517" x2="46.778" y2="44.3762" gradientUnits="userSpaceOnUse">
<stop offset="0.1376" stop-color="#3F873F"/>
<stop offset="0.4016" stop-color="#52A044"/>
<stop offset="0.7129" stop-color="#64B749"/>
<stop offset="0.9081" stop-color="#6ABF4B"/>
</linearGradient>
<linearGradient id="paint2_linear_44_73" x1="28.2163" y1="53.4396" x2="40.3059" y2="53.4396" gradientUnits="userSpaceOnUse">
<stop offset="0.0919165" stop-color="#6ABF4B"/>
<stop offset="0.2871" stop-color="#64B749"/>
<stop offset="0.5984" stop-color="#52A044"/>
<stop offset="0.8624" stop-color="#3F873F"/>
</linearGradient>
<clipPath id="clip0_44_73">
<rect width="72" height="21.4054" fill="white" transform="translate(14 39)"/>
</clipPath>
</defs>
</svg>
