<svg width="16" height="12" viewBox="0 0 16 12" fill="none" xmlns="http://www.w3.org/2000/svg">
<path d="M10 0.87146C8.97856 0.872244 7.97747 1.15717 7.1087 1.69437C6.23992 2.23157 5.53772 2.99987 5.08063 3.91333C4.53685 3.83403 3.98257 3.86762 3.45235 4.01201C2.92213 4.1564 2.42735 4.40849 1.99887 4.75257C1.57039 5.09664 1.2174 5.52531 0.961924 6.01184C0.706445 6.49837 0.553956 7.03232 0.513969 7.58039C0.473982 8.12847 0.547353 8.6789 0.729508 9.19736C0.911663 9.71582 1.19869 10.1912 1.57269 10.5938C1.94669 10.9964 2.39965 11.3177 2.90329 11.5375C3.40694 11.7573 3.95048 11.871 4.50001 11.8715H10C11.4587 11.8715 12.8576 11.292 13.8891 10.2605C14.9205 9.2291 15.5 7.83015 15.5 6.37146C15.5 4.91277 14.9205 3.51382 13.8891 2.48237C12.8576 1.45092 11.4587 0.87146 10 0.87146ZM10 10.8715H4.50001C3.70436 10.8715 2.94129 10.5554 2.37868 9.99278C1.81608 9.43017 1.50001 8.66711 1.50001 7.87146C1.50001 7.07581 1.81608 6.31275 2.37868 5.75014C2.94129 5.18753 3.70436 4.87146 4.50001 4.87146C4.56876 4.87146 4.63751 4.87146 4.70563 4.87833C4.56889 5.36425 4.4997 5.86667 4.50001 6.37146C4.50001 6.50407 4.55268 6.63125 4.64645 6.72501C4.74022 6.81878 4.8674 6.87146 5.00001 6.87146C5.13261 6.87146 5.25979 6.81878 5.35356 6.72501C5.44733 6.63125 5.50001 6.50407 5.50001 6.37146C5.50001 5.48144 5.76393 4.61141 6.25839 3.87139C6.75286 3.13137 7.45566 2.5546 8.27793 2.214C9.1002 1.87341 10.005 1.78429 10.8779 1.95793C11.7508 2.13156 12.5526 2.56014 13.182 3.18948C13.8113 3.81882 14.2399 4.62064 14.4135 5.49355C14.5872 6.36647 14.4981 7.27127 14.1575 8.09354C13.8169 8.9158 13.2401 9.61861 12.5001 10.1131C11.7601 10.6075 10.89 10.8715 10 10.8715Z" fill="url(#paint0_linear_186_186)"/>
<defs>
<linearGradient id="paint0_linear_186_186" x1="6.96403" y1="0.871456" x2="14.6843" y2="11.5572" gradientUnits="userSpaceOnUse">
<stop stop-color="#2EFFE1"/>
<stop offset="1" stop-color="#7DEE53"/>
</linearGradient>
</defs>
</svg>
