<svg width="14" height="13" viewBox="0 0 14 13" fill="none" xmlns="http://www.w3.org/2000/svg">
<path d="M5.5 6.01062C5.5 5.87801 5.55268 5.75083 5.64645 5.65707C5.74021 5.5633 5.86739 5.51062 6 5.51062H8C8.13261 5.51062 8.25979 5.5633 8.35355 5.65707C8.44732 5.75083 8.5 5.87801 8.5 6.01062C8.5 6.14323 8.44732 6.2704 8.35355 6.36417C8.25979 6.45794 8.13261 6.51062 8 6.51062H6C5.86739 6.51062 5.74021 6.45794 5.64645 6.36417C5.55268 6.2704 5.5 6.14323 5.5 6.01062ZM13.5 3.51062V11.5106C13.5 11.7758 13.3946 12.0302 13.2071 12.2177C13.0196 12.4053 12.7652 12.5106 12.5 12.5106H1.5C1.23478 12.5106 0.98043 12.4053 0.792893 12.2177C0.605357 12.0302 0.5 11.7758 0.5 11.5106V3.51062C0.5 3.2454 0.605357 2.99105 0.792893 2.80351C0.98043 2.61598 1.23478 2.51062 1.5 2.51062H4V2.01062C4 1.6128 4.15804 1.23126 4.43934 0.94996C4.72064 0.668655 5.10218 0.51062 5.5 0.51062H8.5C8.89782 0.51062 9.27936 0.668655 9.56066 0.94996C9.84196 1.23126 10 1.6128 10 2.01062V2.51062H12.5C12.7652 2.51062 13.0196 2.61598 13.2071 2.80351C13.3946 2.99105 13.5 3.2454 13.5 3.51062ZM5 2.51062H9V2.01062C9 1.87801 8.94732 1.75083 8.85355 1.65707C8.75979 1.5633 8.63261 1.51062 8.5 1.51062H5.5C5.36739 1.51062 5.24021 1.5633 5.14645 1.65707C5.05268 1.75083 5 1.87801 5 2.01062V2.51062ZM1.5 3.51062V6.11187C3.18776 7.03009 5.07863 7.51097 7 7.51062C8.92145 7.51096 10.8124 7.02986 12.5 6.11124V3.51062H1.5ZM12.5 11.5106V7.23749C10.7876 8.07521 8.90637 8.51066 7 8.51062C5.09367 8.51099 3.21245 8.07574 1.5 7.23812V11.5106H12.5Z" fill="url(#paint0_linear_186_87)"/>
<defs>
<linearGradient id="paint0_linear_186_87" x1="6.10049" y1="0.510616" x2="14.9315" y2="10.2233" gradientUnits="userSpaceOnUse">
<stop stop-color="#2EFFE1"/>
<stop offset="1" stop-color="#7DEE53"/>
</linearGradient>
</defs>
</svg>
