<svg width="14" height="12" viewBox="0 0 14 12" fill="none" xmlns="http://www.w3.org/2000/svg">
<path d="M12.5 0.510376H1.5C1.23478 0.510376 0.98043 0.615733 0.792893 0.803269C0.605357 0.990806 0.5 1.24516 0.5 1.51038V10.5104C0.5 10.7756 0.605357 11.0299 0.792893 11.2175C0.98043 11.405 1.23478 11.5104 1.5 11.5104H12.5C12.7652 11.5104 13.0196 11.405 13.2071 11.2175C13.3946 11.0299 13.5 10.7756 13.5 10.5104V1.51038C13.5 1.24516 13.3946 0.990806 13.2071 0.803269C13.0196 0.615733 12.7652 0.510376 12.5 0.510376ZM12.5 10.5104H1.5V1.51038H12.5V10.5104ZM10.5 4.01038C10.5 4.14298 10.4473 4.27016 10.3536 4.36393C10.2598 4.4577 10.1326 4.51038 10 4.51038H4C3.86739 4.51038 3.74021 4.4577 3.64645 4.36393C3.55268 4.27016 3.5 4.14298 3.5 4.01038C3.5 3.87777 3.55268 3.75059 3.64645 3.65682C3.74021 3.56305 3.86739 3.51038 4 3.51038H10C10.1326 3.51038 10.2598 3.56305 10.3536 3.65682C10.4473 3.75059 10.5 3.87777 10.5 4.01038ZM10.5 6.01038C10.5 6.14298 10.4473 6.27016 10.3536 6.36393C10.2598 6.4577 10.1326 6.51038 10 6.51038H4C3.86739 6.51038 3.74021 6.4577 3.64645 6.36393C3.55268 6.27016 3.5 6.14298 3.5 6.01038C3.5 5.87777 3.55268 5.75059 3.64645 5.65682C3.74021 5.56305 3.86739 5.51038 4 5.51038H10C10.1326 5.51038 10.2598 5.56305 10.3536 5.65682C10.4473 5.75059 10.5 5.87777 10.5 6.01038ZM10.5 8.01038C10.5 8.14298 10.4473 8.27016 10.3536 8.36393C10.2598 8.4577 10.1326 8.51038 10 8.51038H4C3.86739 8.51038 3.74021 8.4577 3.64645 8.36393C3.55268 8.27016 3.5 8.14298 3.5 8.01038C3.5 7.87777 3.55268 7.75059 3.64645 7.65682C3.74021 7.56305 3.86739 7.51038 4 7.51038H10C10.1326 7.51038 10.2598 7.56305 10.3536 7.65682C10.4473 7.75059 10.5 7.87777 10.5 8.01038Z" fill="url(#paint0_linear_767_433)"/>
<defs>
<linearGradient id="paint0_linear_767_433" x1="6.10049" y1="0.510372" x2="14.0991" y2="10.1074" gradientUnits="userSpaceOnUse">
<stop stop-color="#2EFFE1"/>
<stop offset="1" stop-color="#7DEE53"/>
</linearGradient>
</defs>
</svg>
