<svg width="14" height="14" viewBox="0 0 14 14" fill="none" xmlns="http://www.w3.org/2000/svg">
<path d="M7 0.87146C5.71442 0.87146 4.45772 1.25268 3.3888 1.96691C2.31988 2.68114 1.48676 3.6963 0.994786 4.88402C0.502816 6.07174 0.374095 7.37867 0.624899 8.63955C0.875703 9.90042 1.49477 11.0586 2.40381 11.9677C3.31285 12.8767 4.47104 13.4958 5.73192 13.7466C6.99279 13.9974 8.29973 13.8686 9.48744 13.3767C10.6752 12.8847 11.6903 12.0516 12.4046 10.9827C13.1188 9.91375 13.5 8.65704 13.5 7.37146C13.4982 5.64811 12.8128 3.99587 11.5942 2.77728C10.3756 1.55868 8.72335 0.87328 7 0.87146ZM9.44375 9.10833C9.80551 8.60143 9.99996 7.99421 9.99996 7.37146C9.99996 6.74871 9.80551 6.14149 9.44375 5.63458L11.225 3.85396C12.0488 4.84097 12.5001 6.08582 12.5001 7.37146C12.5001 8.6571 12.0488 9.90195 11.225 10.889L9.44375 9.10833ZM5 7.37146C5 6.9759 5.1173 6.58922 5.33706 6.26032C5.55683 5.93142 5.86918 5.67508 6.23464 5.5237C6.60009 5.37233 7.00222 5.33272 7.39018 5.40989C7.77815 5.48706 8.13451 5.67754 8.41422 5.95725C8.69392 6.23695 8.8844 6.59332 8.96157 6.98128C9.03874 7.36924 8.99914 7.77137 8.84776 8.13683C8.69639 8.50228 8.44004 8.81464 8.11114 9.0344C7.78224 9.25416 7.39557 9.37146 7 9.37146C6.46957 9.37146 5.96086 9.16075 5.58579 8.78567C5.21072 8.4106 5 7.90189 5 7.37146ZM10.5175 3.14646L8.73688 4.92771C8.22997 4.56596 7.62276 4.37151 7 4.37151C6.37725 4.37151 5.77004 4.56596 5.26313 4.92771L3.4825 3.14646C4.46951 2.32265 5.71437 1.8714 7 1.8714C8.28564 1.8714 9.53049 2.32265 10.5175 3.14646ZM2.775 3.85396L4.55625 5.63458C4.1945 6.14149 4.00005 6.74871 4.00005 7.37146C4.00005 7.99421 4.1945 8.60143 4.55625 9.10833L2.775 10.889C1.95119 9.90195 1.49994 8.6571 1.49994 7.37146C1.49994 6.08582 1.95119 4.84097 2.775 3.85396ZM3.4825 11.5965L5.26313 9.81521C5.77004 10.177 6.37725 10.3714 7 10.3714C7.62276 10.3714 8.22997 10.177 8.73688 9.81521L10.5175 11.5965C9.53049 12.4203 8.28564 12.8715 7 12.8715C5.71437 12.8715 4.46951 12.4203 3.4825 11.5965Z" fill="url(#paint0_linear_186_190)"/>
<defs>
<linearGradient id="paint0_linear_186_190" x1="6.1005" y1="0.871455" x2="15.7096" y2="10.6271" gradientUnits="userSpaceOnUse">
<stop stop-color="#2EFFE1"/>
<stop offset="1" stop-color="#7DEE53"/>
</linearGradient>
</defs>
</svg>
