<svg width="14" height="14" viewBox="0 0 14 14" fill="none" xmlns="http://www.w3.org/2000/svg">
<path d="M13.2069 6.50001L7.00001 0.29313C6.90748 0.199867 6.79735 0.125926 6.67599 0.0756045C6.55464 0.025283 6.4245 -0.000414649 6.29313 5.05934e-06H0.500005C0.367397 5.05934e-06 0.24022 0.0526836 0.146452 0.146452C0.0526836 0.24022 5.05934e-06 0.367397 5.05934e-06 0.500005V6.29313C-0.000414649 6.4245 0.025283 6.55464 0.0756045 6.67599C0.125926 6.79735 0.199867 6.90748 0.29313 7.00001L6.50001 13.2069C6.59287 13.2998 6.70312 13.3734 6.82446 13.4237C6.9458 13.474 7.07585 13.4999 7.20719 13.4999C7.33853 13.4999 7.46859 13.474 7.58993 13.4237C7.71127 13.3734 7.82152 13.2998 7.91438 13.2069L13.2069 7.91438C13.2998 7.82152 13.3734 7.71127 13.4237 7.58993C13.474 7.46859 13.4999 7.33853 13.4999 7.20719C13.4999 7.07585 13.474 6.9458 13.4237 6.82446C13.3734 6.70312 13.2998 6.59287 13.2069 6.50001ZM7.20688 12.5L1.00001 6.29313V1.00001H6.29313L12.5 7.20688L7.20688 12.5ZM4.00001 3.25001C4.00001 3.39834 3.95602 3.54335 3.87361 3.66668C3.7912 3.79002 3.67406 3.88615 3.53702 3.94291C3.39997 3.99968 3.24917 4.01453 3.10369 3.98559C2.9582 3.95666 2.82456 3.88522 2.71967 3.78034C2.61479 3.67545 2.54335 3.54181 2.51442 3.39632C2.48548 3.25084 2.50033 3.10004 2.5571 2.96299C2.61386 2.82595 2.70999 2.70881 2.83333 2.6264C2.95666 2.54399 3.10167 2.50001 3.25001 2.50001C3.44892 2.50001 3.63968 2.57902 3.78034 2.71967C3.92099 2.86033 4.00001 3.05109 4.00001 3.25001Z" fill="url(#paint0_linear_186_118)"/>
<defs>
<linearGradient id="paint0_linear_186_118" x1="5.81584" y1="-5.03994e-06" x2="15.7945" y2="10.1307" gradientUnits="userSpaceOnUse">
<stop stop-color="#2EFFE1"/>
<stop offset="1" stop-color="#7DEE53"/>
</linearGradient>
</defs>
</svg>
