<svg width="14" height="14" viewBox="0 0 14 14" fill="none" xmlns="http://www.w3.org/2000/svg">
<path d="M8 10.0106C8 10.1432 7.94732 10.2704 7.85356 10.3642C7.75979 10.4579 7.63261 10.5106 7.5 10.5106C7.23479 10.5106 6.98043 10.4053 6.7929 10.2177C6.60536 10.0302 6.5 9.77584 6.5 9.51062V7.01062C6.36739 7.01062 6.24022 6.95794 6.14645 6.86417C6.05268 6.7704 6 6.64323 6 6.51062C6 6.37801 6.05268 6.25083 6.14645 6.15707C6.24022 6.0633 6.36739 6.01062 6.5 6.01062C6.76522 6.01062 7.01957 6.11598 7.20711 6.30351C7.39465 6.49105 7.5 6.7454 7.5 7.01062V9.51062C7.63261 9.51062 7.75979 9.5633 7.85356 9.65707C7.94732 9.75083 8 9.87801 8 10.0106ZM13.5 7.01062C13.5 8.2962 13.1188 9.55291 12.4046 10.6218C11.6903 11.6907 10.6752 12.5239 9.48744 13.0158C8.29972 13.5078 6.99279 13.6365 5.73192 13.3857C4.47104 13.1349 3.31285 12.5159 2.40381 11.6068C1.49477 10.6978 0.875703 9.53958 0.624899 8.27871C0.374095 7.01783 0.502816 5.7109 0.994786 4.52318C1.48676 3.33546 2.31988 2.3203 3.3888 1.60607C4.45772 0.891838 5.71442 0.51062 7 0.51062C8.72335 0.51244 10.3756 1.19784 11.5942 2.41644C12.8128 3.63503 13.4982 5.28727 13.5 7.01062ZM12.5 7.01062C12.5 5.92282 12.1774 4.85945 11.5731 3.95498C10.9687 3.05051 10.1098 2.34556 9.10476 1.92928C8.09977 1.513 6.9939 1.40408 5.92701 1.6163C4.86011 1.82852 3.8801 2.35234 3.11092 3.12153C2.34173 3.89072 1.8179 4.87073 1.60568 5.93762C1.39347 7.00452 1.50238 8.11039 1.91867 9.11538C2.33495 10.1204 3.0399 10.9794 3.94437 11.5837C4.84884 12.1881 5.91221 12.5106 7 12.5106C8.45819 12.509 9.85617 11.929 10.8873 10.8979C11.9184 9.86679 12.4983 8.4688 12.5 7.01062ZM6.75 5.01062C6.89834 5.01062 7.04334 4.96663 7.16668 4.88422C7.29002 4.80181 7.38615 4.68468 7.44291 4.54763C7.49968 4.41059 7.51453 4.25979 7.48559 4.1143C7.45665 3.96882 7.38522 3.83518 7.28033 3.73029C7.17544 3.6254 7.04181 3.55397 6.89632 3.52503C6.75083 3.49609 6.60003 3.51094 6.46299 3.56771C6.32595 3.62448 6.20881 3.72061 6.1264 3.84394C6.04399 3.96728 6 4.11228 6 4.26062C6 4.45953 6.07902 4.6503 6.21967 4.79095C6.36032 4.9316 6.55109 5.01062 6.75 5.01062Z" fill="url(#paint0_linear_767_419)"/>
<defs>
<linearGradient id="paint0_linear_767_419" x1="6.1005" y1="0.510615" x2="15.7096" y2="10.2662" gradientUnits="userSpaceOnUse">
<stop stop-color="#2EFFE1"/>
<stop offset="1" stop-color="#7DEE53"/>
</linearGradient>
</defs>
</svg>
