<svg width="14" height="12" viewBox="0 0 14 12" fill="none" xmlns="http://www.w3.org/2000/svg">
<path d="M13.825 7.86334C13.7833 7.74682 13.7342 7.63305 13.6781 7.52271L11.0787 1.60896C11.0542 1.552 11.0189 1.50025 10.975 1.45646C10.7893 1.2707 10.5688 1.12334 10.3261 1.0228C10.0834 0.922259 9.82331 0.870513 9.56063 0.870513C9.29794 0.870513 9.03783 0.922259 8.79515 1.0228C8.55247 1.12334 8.33197 1.2707 8.14625 1.45646C8.05281 1.55 8.00023 1.67675 8 1.80896V3.37146H6V1.80896C6.00005 1.74328 5.98716 1.67823 5.96207 1.61754C5.93697 1.55684 5.90017 1.50168 5.85375 1.45521C5.66803 1.26945 5.44753 1.12209 5.20485 1.02155C4.96217 0.921009 4.70206 0.869263 4.43938 0.869263C4.17669 0.869263 3.91658 0.921009 3.6739 1.02155C3.43122 1.12209 3.21072 1.26945 3.025 1.45521C2.98105 1.499 2.94584 1.55075 2.92125 1.60771L0.321875 7.52146C0.265805 7.6318 0.216749 7.74557 0.175 7.86209C0.0278126 8.27392 -0.0275504 8.71296 0.0127892 9.14844C0.0531288 9.58392 0.188196 10.0053 0.408528 10.3831C0.62886 10.7609 0.929129 11.0859 1.2883 11.3355C1.64747 11.585 2.05686 11.753 2.48778 11.8277C2.91871 11.9023 3.36075 11.8819 3.78294 11.7678C4.20513 11.6536 4.59726 11.4486 4.93186 11.1669C5.26646 10.8853 5.53543 10.5339 5.71994 10.1374C5.90446 9.74087 6.00004 9.30881 6 8.87146V4.37146H8V8.87146C7.99978 9.30886 8.09521 9.74102 8.2796 10.1377C8.46398 10.5343 8.73288 10.8858 9.06743 11.1676C9.40198 11.4493 9.7941 11.6545 10.2163 11.7688C10.6385 11.8831 11.0806 11.9036 11.5116 11.829C11.9426 11.7544 12.3521 11.5865 12.7113 11.337C13.0706 11.0875 13.3709 10.7624 13.5913 10.3846C13.8117 10.0068 13.9468 9.58538 13.9872 9.14984C14.0276 8.71431 13.9722 8.27522 13.825 7.86334ZM3.79438 2.10584C3.96108 1.96547 4.16906 1.88341 4.38669 1.87213C4.60432 1.86085 4.81968 1.92096 5 2.04334V6.63771C4.60963 6.28718 4.13399 6.04539 3.62074 5.93658C3.10749 5.82777 2.57466 5.85574 2.07563 6.01771L3.79438 2.10584ZM3 10.8715C2.60444 10.8715 2.21776 10.7542 1.88886 10.5344C1.55996 10.3146 1.30362 10.0023 1.15224 9.63683C1.00087 9.27138 0.961259 8.86924 1.03843 8.48128C1.1156 8.09332 1.30608 7.73695 1.58579 7.45725C1.86549 7.17754 2.22186 6.98706 2.60982 6.90989C2.99778 6.83272 3.39991 6.87233 3.76537 7.0237C4.13082 7.17508 4.44318 7.43142 4.66294 7.76032C4.8827 8.08922 5 8.4759 5 8.87146C5 9.40189 4.78929 9.9106 4.41421 10.2857C4.03914 10.6607 3.53043 10.8715 3 10.8715ZM9 2.04271C9.18032 1.92034 9.39568 1.86022 9.61331 1.8715C9.83094 1.88279 10.0389 1.96485 10.2056 2.10521L11.9244 6.01646C11.4253 5.85457 10.8924 5.8267 10.3792 5.93562C9.86592 6.04455 9.39031 6.28645 9 6.63709V2.04271ZM11 10.8715C10.6044 10.8715 10.2178 10.7542 9.88886 10.5344C9.55996 10.3146 9.30362 10.0023 9.15224 9.63683C9.00087 9.27138 8.96126 8.86924 9.03843 8.48128C9.1156 8.09332 9.30608 7.73695 9.58579 7.45725C9.86549 7.17754 10.2219 6.98706 10.6098 6.90989C10.9978 6.83272 11.3999 6.87233 11.7654 7.0237C12.1308 7.17508 12.4432 7.43142 12.6629 7.76032C12.8827 8.08922 13 8.4759 13 8.87146C13 9.40189 12.7893 9.9106 12.4142 10.2857C12.0391 10.6607 11.5304 10.8715 11 10.8715Z" fill="url(#paint0_linear_186_183)"/>
<defs>
<linearGradient id="paint0_linear_186_183" x1="6.0313" y1="0.869259" x2="13.9064" y2="11.0415" gradientUnits="userSpaceOnUse">
<stop stop-color="#2EFFE1"/>
<stop offset="1" stop-color="#7DEE53"/>
</linearGradient>
</defs>
</svg>
